<svg width="32" height="32" viewBox="0 0 32 32" fill="none" xmlns="http://www.w3.org/2000/svg">
  <rect width="32" height="32" rx="4" fill="#520F25"/>
  <path d="M16 8C12.1339 8 9 11.1339 9 15C9 18.8661 12.1339 22 16 22C19.8661 22 23 18.8661 23 15C23 11.1339 19.8661 8 16 8ZM16 20.5C12.9624 20.5 10.5 18.0376 10.5 15C10.5 11.9624 12.9624 9.5 16 9.5C19.0376 9.5 21.5 11.9624 21.5 15C21.5 18.0376 19.0376 20.5 16 20.5Z" fill="#D9A11D"/>
  <path d="M16 23.5C11.3056 23.5 7.5 19.6944 7.5 15C7.5 10.3056 11.3056 6.5 16 6.5C20.6944 6.5 24.5 10.3056 24.5 15C24.5 19.6944 20.6944 23.5 16 23.5ZM16 7.5C11.8578 7.5 8.5 10.8578 8.5 15C8.5 19.1422 11.8578 22.5 16 22.5C20.1422 22.5 23.5 19.1422 23.5 15C23.5 10.8578 20.1422 7.5 16 7.5Z" fill="#D9A11D"/>
  <path d="M16 25.5C10.2011 25.5 5.5 20.7989 5.5 15C5.5 9.20106 10.2011 4.5 16 4.5C21.7989 4.5 26.5 9.20106 26.5 15C26.5 20.7989 21.7989 25.5 16 25.5ZM16 5.5C10.7533 5.5 6.5 9.75329 6.5 15C6.5 20.2467 10.7533 24.5 16 24.5C21.2467 24.5 25.5 20.2467 25.5 15C25.5 9.75329 21.2467 5.5 16 5.5Z" fill="#D9A11D"/>
</svg>